# xmcd
#
# Track frame offsets:
# 150
# 16312
# 29300
# 43508
# 60451
# 76678
# 92414
# 112242
# 123542
# 139828
# 154585
# 170278
# 188411
# 204826
# 218401
# 233220
#
# Disc length: 3301 seconds
#
#
# Revision: 0
# Processed by: cddbd v1.5.2PL0 Copyright (c) Steve Scherf et al.
# Submitted via: FreeRIP 2.96 
#
DISCID=bf0ce310
DTITLE=Kaio and Kanhoto - Depois do Temporal
DYEAR=1900
DGENRE=Sertanejo
TTITLE0=Sem hora marcada
TTITLE1=Meu refúgio
TTITLE2=Fazendo o bailão ferver
TTITLE3=Depois do temporal
TTITLE4=Aventuras de Coló
TTITLE5=Sabe mãe
TTITLE6=Majetade o sabiá
TTITLE7=Zonão
TTITLE8=Onde eu errei
TTITLE9=O carro e a faculdade
TTITLE10=Filho pródigo
TTITLE11=O ultimo caipira
TTITLE12=Tocando em frente
TTITLE13=Recordação
TTITLE14=Chalana
TTITLE15=Saudade da minha terra
EXTD=
EXTT0=
EXTT1=
EXTT2=
EXTT3=
EXTT4=
EXTT5=
EXTT6=
EXTT7=
EXTT8=
EXTT9=
EXTT10=
EXTT11=
EXTT12=
EXTT13=
EXTT14=
EXTT15=
PLAYORDER=
